<mxfile host="app.diagrams.net" modified="2024-01-25T05:27:02.091Z" agent="Mozilla/5.0 (Windows NT 10.0; Win64; x64) AppleWebKit/537.36 (KHTML, like Gecko) Chrome/120.0.0.0 Safari/537.36" etag="wJ6Q7uyanSF53pm-gU8p" version="23.0.1" type="gitlab">
  <diagram name="Page-1" id="03018318-947c-dd8e-b7a3-06fadd420f32">
    <mxGraphModel dx="2074" dy="1157" grid="1" gridSize="10" guides="1" tooltips="1" connect="1" arrows="1" fold="1" page="1" pageScale="1" pageWidth="1100" pageHeight="850" background="none" math="0" shadow="0">
      <root>
        <mxCell id="0" />
        <mxCell id="1" parent="0" />
        <mxCell id="TpUg8ljbYgUH7NCbWuLg-1" value="" style="whiteSpace=wrap;html=1;rounded=0;shadow=0;labelBackgroundColor=none;strokeColor=#000000;strokeWidth=1;fillColor=none;fontFamily=Verdana;fontSize=12;fontColor=#000000;align=center;comic=1;" vertex="1" parent="1">
          <mxGeometry x="20" y="40" width="1120" height="860" as="geometry" />
        </mxCell>
        <mxCell id="TpUg8ljbYgUH7NCbWuLg-2" value="" style="line;strokeWidth=1;html=1;rounded=0;shadow=0;labelBackgroundColor=none;fillColor=none;fontFamily=Verdana;fontSize=14;fontColor=#000000;align=center;comic=1;" vertex="1" parent="1">
          <mxGeometry x="50" y="160" width="1060" height="10" as="geometry" />
        </mxCell>
        <mxCell id="TpUg8ljbYgUH7NCbWuLg-3" value="Password" style="text;html=1;points=[];align=left;verticalAlign=top;spacingTop=-4;fontSize=14;fontFamily=Verdana" vertex="1" parent="1">
          <mxGeometry x="325" y="415" width="60" height="20" as="geometry" />
        </mxCell>
        <mxCell id="TpUg8ljbYgUH7NCbWuLg-4" value="LOGO" style="html=1;whiteSpace=wrap;" vertex="1" parent="1">
          <mxGeometry x="70" y="80" width="110" height="50" as="geometry" />
        </mxCell>
        <mxCell id="TpUg8ljbYgUH7NCbWuLg-5" value="********" style="strokeWidth=1;shadow=0;dashed=0;align=center;html=1;shape=mxgraph.mockup.forms.pwField;strokeColor=#1B1D1F;mainText=;align=left;fontColor=#666666;fontSize=17;spacingLeft=3;" vertex="1" parent="1">
          <mxGeometry x="325" y="445" width="520" height="45" as="geometry" />
        </mxCell>
        <mxCell id="TpUg8ljbYgUH7NCbWuLg-6" value="&lt;font style=&quot;font-size: 20px;&quot;&gt;&lt;b&gt;Sign In&lt;/b&gt;&lt;/font&gt;" style="text;html=1;points=[];align=left;verticalAlign=top;spacingTop=-4;fontSize=14;fontFamily=Verdana" vertex="1" parent="1">
          <mxGeometry x="300" y="230" width="60" height="20" as="geometry" />
        </mxCell>
        <mxCell id="TpUg8ljbYgUH7NCbWuLg-7" value="Username" style="text;html=1;points=[];align=left;verticalAlign=top;spacingTop=-4;fontSize=14;fontFamily=Verdana" vertex="1" parent="1">
          <mxGeometry x="325" y="300" width="60" height="20" as="geometry" />
        </mxCell>
        <mxCell id="TpUg8ljbYgUH7NCbWuLg-8" value="" style="rounded=0;whiteSpace=wrap;html=1;" vertex="1" parent="1">
          <mxGeometry x="325" y="330" width="520" height="40" as="geometry" />
        </mxCell>
        <mxCell id="TpUg8ljbYgUH7NCbWuLg-11" value="Login" style="strokeWidth=1;shadow=0;dashed=0;align=center;html=1;shape=mxgraph.mockup.buttons.button;strokeColor=#666666;fontColor=#ffffff;mainText=;buttonStyle=round;fontSize=17;fontStyle=1;fillColor=#008cff;whiteSpace=wrap;" vertex="1" parent="1">
          <mxGeometry x="505" y="565" width="150" height="50" as="geometry" />
        </mxCell>
      </root>
    </mxGraphModel>
  </diagram>
</mxfile>
